<svg width="28" height="28" viewBox="0 0 28 28" fill="none" xmlns="http://www.w3.org/2000/svg">
<path d="M14.1887 27.5093C21.6317 27.5093 27.6654 21.4756 27.6654 14.0326C27.6654 6.58963 21.6317 0.555908 14.1887 0.555908C6.74576 0.555908 0.712036 6.58963 0.712036 14.0326C0.712036 21.4756 6.74576 27.5093 14.1887 27.5093Z" fill="black"/>
<path d="M13.5656 13.9377H11.9561C11.9561 15.0365 11.6776 16.2748 11.1513 17.1105C9.9441 16.3986 8.9691 15.3307 8.16424 14.3402C9.91321 13.8141 12.0333 12.9163 12.0333 10.6876C12.0333 8.98496 10.8262 7.66943 8.72124 7.66943C6.46161 7.66943 5.26989 9.24801 5.26989 10.9195C5.26989 11.8173 5.5175 12.7611 6.04361 13.7827C4.77467 14.4792 4.15564 15.5471 4.15564 16.7389C4.15564 18.7663 6.04386 20.051 8.31894 20.051C9.37141 20.051 10.4393 19.6332 11.3834 18.8284C12.5752 19.5094 13.9061 19.8499 15.2525 19.8499V18.5035C14.4631 18.4726 13.163 18.2405 12.4511 17.7916C13.1785 16.6619 13.5345 15.2534 13.5653 13.9379L13.5656 13.9377ZM8.68039 9.0161C9.7914 9.01884 10.4393 9.86854 10.4393 10.6873C10.4393 11.91 8.9691 12.6373 7.4523 13.21C7.05 12.4052 6.86416 11.6932 6.86416 10.9658C6.86416 10.0245 7.47995 9.02158 8.68039 9.01585V9.0161ZM8.31894 18.7046C6.97252 18.7046 5.74967 18.101 5.74967 16.7391C5.74967 16.1664 5.95094 15.3927 6.74011 14.8975C7.60675 16.0892 8.76758 17.188 10.0985 18.0858C9.61877 18.4726 9.06152 18.7048 8.31869 18.7048L8.31894 18.7046Z" fill="#F3F4F4"/>
<path d="M19.5974 7.66943C18.545 7.66943 17.4771 8.08718 16.5329 8.89204C15.3412 8.21099 14.0103 7.87046 12.6638 7.87046V9.21688C13.4533 9.24777 14.7533 9.47993 15.465 9.92882C14.7376 11.0585 14.3817 12.467 14.3508 13.7825H15.9605C15.9605 12.6837 16.239 11.4454 16.7654 10.6096C17.9725 11.3216 18.9475 12.3895 19.7524 13.3799C18.0034 13.906 15.8833 14.8038 15.8833 17.0326C15.8833 18.7349 17.0904 20.0505 19.1954 20.0505C21.455 20.0505 22.6467 18.4719 22.6467 16.8004C22.6467 15.9026 22.3991 14.9588 21.873 13.9372C23.1422 13.2407 23.7612 12.1728 23.7612 10.981C23.7607 8.95407 21.8725 7.66943 19.5974 7.66943ZM19.236 18.7043C18.125 18.7016 17.4771 17.8519 17.4771 17.0331C17.4771 15.8104 18.9473 15.0831 20.4641 14.5104C20.8664 15.3152 21.0522 16.0272 21.0522 16.7546C21.0522 17.6959 20.4364 18.6988 19.236 18.7046V18.7043ZM21.176 12.8232C20.3094 11.6315 19.1485 10.5327 17.8176 9.63488C18.2974 9.24801 18.8546 9.01585 19.5974 9.01585C20.9439 9.01585 22.1667 9.61943 22.1667 10.9813C22.1667 11.554 21.9654 12.3277 21.1763 12.8229L21.176 12.8232Z" fill="#F3F4F4"/>
</svg>
